Coordinates
version=1
nRows=8
nColumns=34
inDegrees=yes

Units are S.I. units (second, meters, Newtons, ...)
If the header above contains a line with 'inDegrees', this indicates whether rotational values are in degrees (yes) or radians (no).

endheader
time	pelvis_tilt	pelvis_list	pelvis_rotation	pelvis_tx	pelvis_ty	pelvis_tz	hip_flexion_r	hip_adduction_r	hip_rotation_r	knee_angle_r	ankle_angle_r	subtalar_angle_r	mtp_angle_r	hip_flexion_l	hip_adduction_l	hip_rotation_l	knee_angle_l	ankle_angle_l	subtalar_angle_l	mtp_angle_l	lumbar_extension	lumbar_bending	lumbar_rotation	arm_flex_r	arm_add_r	arm_rot_r	elbow_flex_r	pro_sup_r	arm_flex_l	arm_add_l	arm_rot_l	elbow_flex_l	pro_sup_l
      2.75000000	      4.69457244	      6.85074402	     -5.06940352	      0.29155338	      0.84077130	      0.06186672	     -5.16012071	      0.63170223	      2.01221907	      5.38297899	      9.20214425	     -8.07927360	      0.00000000	     21.66234782	      2.13091226	      7.51459735	     25.33255635	      3.15859627	    -16.83688130	      0.00000000	     -8.93019382	     -5.65622785	      3.99071944	     47.50797727	      9.69504231	     70.70537959	    130.24817640	     86.96187606	     37.27915069	      8.50744918	     68.69383422	    127.02731436	     68.55840917
      2.76666670	      4.79262751	      6.97904874	     -5.24040794	      0.28953099	      0.84194884	      0.06225215	     -5.12096755	      0.44950844	      2.33963170	      5.17753744	      9.82533841	     -7.98980309	      0.00000000	     22.45624561	      2.47190220	      7.89386536	     23.73226552	      3.38120740	    -16.18998085	      0.00000000	     -9.09324178	     -5.83624245	      4.14884227	     47.66084605	      9.58367494	     70.75901714	    130.27913019	     86.93688756	     37.08714222	      8.51383009	     68.80175273	    127.09080730	     68.52391661
      2.78333330	      4.79925357	      7.22135915	     -5.40828671	      0.28956114	      0.84189261	      0.06352775	     -5.01418512	      0.20642515	      2.47228646	      5.12128981	     10.13881542	     -7.68146763	      0.00000000	     23.17249814	      2.66510579	      7.79347404	     22.30573096	      3.00712811	    -15.42925126	      0.00000000	     -9.15615224	     -6.17328403	      4.17231356	     47.71804048	      9.73924656	     70.83250671	    130.39208998	     86.91231135	     37.14031288	      8.33506283	     68.76750033	    126.99677471	     68.47649572
      2.80000000	      4.86387033	      7.08811725	     -5.48833812	      0.28646551	      0.84497993	      0.06321673	     -4.60315668	      0.27438515	      2.39794463	      5.19906664	     10.07640872	     -7.45424679	      0.00000000	     23.83601919	      2.49099842	      7.72829492	     20.83607251	      2.45874561	    -14.78170468	      0.00000000	     -9.60980973	     -6.02672585	      4.19351900	     47.90548549	      9.74409510	     70.86724909	    130.44250235	     86.89474983	     37.35408828	      8.16524818	     68.58355791	    126.67925468	     68.42541985
      2.81666670	      5.06733219	      7.00880779	     -5.52630274	      0.28708132	      0.84342365	      0.06392520	     -4.48113579	      0.28797679	      2.39423435	      5.12334212	     10.13149270	     -7.46130550	      0.00000000	     24.56879635	      2.45731217	      7.75760606	     20.26232687	      2.46160444	    -14.75455590	      0.00000000	    -10.15320594	     -6.03066718	      4.19964450	     47.91941661	      9.65792269	     70.83579963	    130.39793055	     86.89104893	     37.35349816	      8.07902605	     68.53980628	    126.59560851	     68.41766048
      2.83333330	      5.19091764	      6.97408613	     -5.38755240	      0.28635433	      0.84604183	      0.06510115	     -4.12970815	      0.33425878	      2.38366162	      5.69304148	     11.28913950	     -7.57177332	      0.00000000	     25.12837061	      2.41914074	      7.79388539	     19.20984533	      1.48532179	    -14.15278542	      0.00000000	    -10.55164773	     -6.05276672	      4.07990364	     48.48971995	      9.61002993	     70.63274828	    130.28203173	     86.88256208	     37.58309201	      8.06573444	     68.28533408	    126.06717553	     68.37286958
      2.85000000	      5.31764154	      7.06321641	     -5.40021669	      0.28598296	      0.84841666	      0.06527460	     -3.89684118	      0.18789911	      2.43242642	      6.03417944	     12.46353770	     -7.31109954	      0.00000000	     25.58110904	      2.46751968	      7.50918772	     18.32973629	      0.79736238	    -14.00351151	      0.00000000	    -10.81060663	     -6.15028815	      4.11941084	     48.69640256	      9.59198537	     70.53379037	    130.12006792	     86.88131726	     37.61295516	      8.02285205	     68.05874411	    125.68075862	     68.33185805
      2.86666670	      5.27339119	      7.27184551	     -5.44450666	      0.28369379	      0.85063590	      0.06574048	     -3.49374924	     -0.03054072	      2.28162507	      6.41511889	     13.95021050	     -6.44804534	      0.00000000	     26.24849890	      2.62406392	      7.03729234	     17.19586557	     -0.01745177	    -14.21371331	      0.00000000	    -10.91272698	     -6.51501122	      4.15172592	     48.72047289	      9.54655957	     70.53591303	    130.09169806	     86.91596883	     37.62688323	      7.96533010	     67.92936238	    125.37261695	     68.29506047
